<svg width="75" height="45" viewBox="0 0 75 45" fill="none" xmlns="http://www.w3.org/2000/svg">
<path d="M0 22.5C0 10.0736 10.054 0 22.4561 0H51.9298C64.3321 0 74.386 10.0736 74.386 22.5V45H22.4561C10.054 45 0 34.9265 0 22.5Z" fill="#FF92C2"/>
<path d="M51.9299 8.4375H22.4562C14.7048 8.4375 8.42108 14.7335 8.42108 22.5C8.42108 30.2665 14.7048 36.5625 22.4562 36.5625H51.9299C59.6812 36.5625 65.9649 30.2665 65.9649 22.5C65.9649 14.7335 59.6812 8.4375 51.9299 8.4375Z" fill="#FFC8FB"/>
<path d="M22.4561 29.5312C26.3318 29.5312 29.4737 26.3833 29.4737 22.5C29.4737 18.6167 26.3318 15.4688 22.4561 15.4688C18.5805 15.4688 15.4386 18.6167 15.4386 22.5C15.4386 26.3833 18.5805 29.5312 22.4561 29.5312Z" fill="black"/>
<path d="M19.6491 21.0938C20.4243 21.0938 21.0526 20.4642 21.0526 19.6875C21.0526 18.9108 20.4243 18.2812 19.6491 18.2812C18.874 18.2812 18.2456 18.9108 18.2456 19.6875C18.2456 20.4642 18.874 21.0938 19.6491 21.0938Z" fill="white"/>
<path d="M53.3333 29.5312C57.209 29.5312 60.3509 26.3833 60.3509 22.5C60.3509 18.6167 57.209 15.4688 53.3333 15.4688C49.4577 15.4688 46.3158 18.6167 46.3158 22.5C46.3158 26.3833 49.4577 29.5312 53.3333 29.5312Z" fill="black"/>
<path d="M50.5263 21.0938C51.3014 21.0938 51.9298 20.4642 51.9298 19.6875C51.9298 18.9108 51.3014 18.2812 50.5263 18.2812C49.7512 18.2812 49.1228 18.9108 49.1228 19.6875C49.1228 20.4642 49.7512 21.0938 50.5263 21.0938Z" fill="white"/>
</svg>
